HIERARCHY
ROOT spine
{
	OFFSET 0.000000 -0.016002 0.756810
	CHANNELS 6 Xposition Yposition Zposition Xrotation Yrotation Zrotation
	JOINT spine.001
	{
		OFFSET -0.000000 0.033202 0.400490
		CHANNELS 3 Xrotation Yrotation Zrotation
		JOINT spine.002
		{
			OFFSET 0.000000 -0.016800 0.135600
			CHANNELS 3 Xrotation Yrotation Zrotation
			JOINT spine.003
			{
				OFFSET 0.000000 0.005500 0.172800
				CHANNELS 3 Xrotation Yrotation Zrotation
				JOINT spine.004
				{
					OFFSET 0.000000 0.005500 0.192500
					CHANNELS 6 Xposition Yposition Zposition Xrotation Yrotation Zrotation
					End Site
					{
						OFFSET -0.002595 -0.024400 0.891066
					}
				}
				JOINT shoulder.L
				{
					OFFSET 0.018300 -0.074300 0.139400
					CHANNELS 6 Xposition Yposition Zposition Yrotation Xrotation Zrotation
					JOINT upper_arm.L
					{
						OFFSET 0.305284 0.095100 -0.022257
						CHANNELS 6 Xposition Yposition Zposition Xrotation Yrotation Zrotation
						JOINT forearm.L
						{
							OFFSET 0.317351 0.002465 -0.005579
							CHANNELS 3 Xrotation Yrotation Zrotation
							End Site
							{
								OFFSET 0.342909 -0.021500 -0.023381
							}
						}
					}
				}
				JOINT shoulder.R
				{
					OFFSET -0.018300 -0.074300 0.139400
					CHANNELS 6 Xposition Yposition Zposition Yrotation Xrotation Zrotation
					JOINT upper_arm.R
					{
						OFFSET -0.305284 0.095100 -0.022257
						CHANNELS 6 Xposition Yposition Zposition Xrotation Yrotation Zrotation
						JOINT forearm.R
						{
							OFFSET -0.317351 0.002465 -0.005579
							CHANNELS 3 Xrotation Yrotation Zrotation
							End Site
							{
								OFFSET -0.342909 -0.021500 -0.023381
							}
						}
					}
				}
			}
		}
	}
	JOINT pelvis.L
	{
		OFFSET 0.000000 0.000000 0.000000
		CHANNELS 6 Xposition Yposition Zposition Yrotation Xrotation Zrotation
		End Site
		{
			OFFSET 0.244110 -0.068027 0.028065
		}
	}
	JOINT pelvis.R
	{
		OFFSET -0.000000 0.000000 0.000000
		CHANNELS 6 Xposition Yposition Zposition Yrotation Xrotation Zrotation
		End Site
		{
			OFFSET -0.244110 -0.068027 0.028065
		}
	}
	JOINT thigh.L
	{
		OFFSET 0.247740 -0.008119 -0.056633
		CHANNELS 6 Xposition Yposition Zposition Xrotation Yrotation Zrotation
		JOINT shin.L
		{
			OFFSET -0.024108 0.002021 -0.403683
			CHANNELS 3 Xrotation Yrotation Zrotation
			End Site
			{
				OFFSET -0.001797 -0.032260 -0.352038
			}
		}
	}
	JOINT thigh.R
	{
		OFFSET -0.247740 -0.008119 -0.056633
		CHANNELS 6 Xposition Yposition Zposition Xrotation Yrotation Zrotation
		JOINT shin.R
		{
			OFFSET 0.024108 0.002021 -0.403683
			CHANNELS 3 Xrotation Yrotation Zrotation
			End Site
			{
				OFFSET 0.001797 -0.032260 -0.352038
			}
		}
	}
}
MOTION
Frames: 12
Frame Time: 0.041667
0.000000 0.088581 0.802864 0.612255 0.031316 2.928422 2.352821 -0.352898 -1.996830 -0.000001 0.000000 -0.000000 -0.000000 0.000000 -0.000000 0.000000 0.005500 0.192500 -7.070534 0.198606 -0.007264 0.018300 -0.074300 0.139400 -5.946876 -1.479351 -12.618188 0.279318 0.189649 0.011096 -11.141610 30.376624 21.947244 1.019597 -18.832882 -3.828379 -0.018300 -0.074300 0.139400 -6.472917 1.869160 -1.044804 -0.299027 -0.004385 -0.049884 -5.273156 -32.308099 0.225138 0.018019 -1.017505 -0.031699 0.000000 0.003578 0.000518 -9.046260 19.518481 0.796270 -0.000000 0.000000 -0.000000 -1.807231 0.000005 0.000470 0.240133 -0.002408 0.010506 -7.296474 -0.965693 -0.703835 21.753031 -1.564760 -0.258314 -0.266177 0.015954 0.008371 -5.724585 2.718086 -1.783453 3.198637 -0.915815 0.045266 
0.000000 0.088581 0.802864 0.612255 0.031316 2.928422 2.348580 -1.130261 -1.606974 -0.000001 0.000000 -0.000000 -0.000000 0.000000 0.000000 0.000000 0.005500 0.192500 -7.070534 0.198606 -0.007264 0.018300 -0.074300 0.139400 -5.946877 -1.479351 -12.618187 0.279318 0.189649 0.011095 -11.476643 31.401358 22.335526 0.609267 -18.792857 -3.854937 -0.018300 -0.074300 0.139400 -6.472916 1.869160 -1.044803 -0.299027 -0.004385 -0.049884 -5.273157 -32.308103 0.225137 0.018019 -1.017495 -0.031699 0.000000 0.003578 0.000518 -9.046260 19.518481 0.796270 -0.000000 0.000000 -0.000000 -1.807231 0.000005 0.000470 0.240133 -0.002408 0.010506 -10.525815 -0.800800 -0.681362 21.765929 -1.565331 -0.258400 -0.266177 0.015954 0.008371 -2.908845 2.579736 -1.796384 3.198638 -0.915815 0.045266 
0.000000 0.088581 0.802864 0.612255 0.031316 2.928422 2.365665 -1.816310 -0.995674 -0.000001 0.000000 0.000000 -0.000000 -0.000000 0.000000 0.000000 0.005500 0.192500 -7.070534 0.198606 -0.007264 0.018300 -0.074300 0.139400 -5.946877 -1.479352 -12.618190 0.279318 0.189649 0.011096 -11.851330 32.601722 22.781019 0.226217 -18.752928 -3.851776 -0.018300 -0.074300 0.139400 -6.472917 1.869160 -1.044803 -0.299027 -0.004385 -0.049884 -5.273154 -32.308096 0.225137 0.018020 -1.017490 -0.031699 0.000000 0.003578 0.000518 -9.046260 19.518481 0.796270 -0.000000 0.000000 -0.000000 -1.807231 0.000005 0.000470 0.240133 -0.002408 0.010506 -13.525932 -0.649471 -0.651981 21.776258 -1.565788 -0.258469 -0.266177 0.015954 0.008371 -0.180628 2.444001 -1.801280 3.198638 -0.915815 0.045267 
0.000000 0.088581 0.802864 0.612255 0.031316 2.928422 2.406257 -2.412949 -0.224207 0.000001 0.000000 0.000000 -0.000000 0.000000 0.000000 0.000000 0.005500 0.192500 -7.070534 0.198606 -0.007265 0.018300 -0.074300 0.139400 -5.946876 -1.479352 -12.618186 0.279319 0.189649 0.011096 -12.249284 33.913610 23.253493 -0.130471 -18.713421 -3.820423 -0.018300 -0.074300 0.139400 -6.472916 1.869160 -1.044803 -0.299027 -0.004385 -0.049884 -5.273159 -32.308099 0.225137 0.018018 -1.017503 -0.031699 0.000000 0.003578 0.000518 -9.046260 19.518481 0.796270 -0.000000 0.000000 -0.000000 -1.807231 0.000005 0.000470 0.240133 -0.002408 0.010506 -16.276416 -0.512691 -0.617952 21.784306 -1.566144 -0.258523 -0.266177 0.015954 0.008371 2.410067 2.314037 -1.798994 3.198638 -0.915815 0.045266 
0.000000 0.088581 0.802864 0.612255 0.031316 2.928422 2.470459 -2.921927 0.645978 -0.000000 -0.000000 0.000000 -0.000000 0.000000 0.000000 0.000000 0.005500 0.192500 -7.070535 0.198606 -0.007265 0.018300 -0.074300 0.139400 -5.946878 -1.479352 -12.618188 0.279318 0.189649 0.011096 -12.650531 35.273385 23.719524 -0.461704 -18.674579 -3.762420 -0.018300 -0.074300 0.139400 -6.472916 1.869160 -1.044806 -0.299027 -0.004385 -0.049884 -5.273158 -32.308099 0.225136 0.018019 -1.017493 -0.031700 0.000000 0.003578 0.000518 -9.046260 19.518481 0.796270 -0.000000 0.000000 -0.000000 -1.807231 0.000005 0.000470 0.240133 -0.002408 0.010506 -18.754018 -0.391367 -0.581580 21.790347 -1.566411 -0.258562 -0.266177 0.015954 0.008371 4.813282 2.192902 -1.790843 3.198638 -0.915815 0.045266 
0.000000 0.088581 0.802864 0.612255 0.031316 2.928422 2.556779 -3.345012 1.553230 -0.000000 -0.000000 0.000000 -0.000000 0.000000 -0.000000 0.000000 0.005500 0.192500 -7.070534 0.198606 -0.007265 0.018300 -0.074300 0.139400 -5.946876 -1.479352 -12.618188 0.279318 0.189649 0.011096 -13.030678 36.618249 24.141708 -0.768402 -18.636627 -3.679291 -0.018300 -0.074300 0.139400 -6.472914 1.869159 -1.044804 -0.299027 -0.004385 -0.049884 -5.273160 -32.308106 0.225137 0.018018 -1.017503 -0.031699 0.000000 0.003578 0.000518 -9.046260 19.518481 0.796270 -0.000000 0.000000 -0.000000 -1.807231 0.000005 0.000470 0.240133 -0.002408 0.010506 -20.933056 -0.286349 -0.545181 21.794678 -1.566603 -0.258591 -0.266177 0.015954 0.008371 6.979437 2.083490 -1.778520 3.198638 -0.915815 0.045266 
0.000000 0.088581 0.802864 0.612255 0.031316 2.928422 2.662611 -3.684153 2.435727 -0.000001 0.000000 -0.000000 -0.000000 0.000000 0.000000 0.000000 0.005500 0.192500 -7.070534 0.198607 -0.007265 0.018300 -0.074300 0.139400 -5.946875 -1.479351 -12.618186 0.279318 0.189649 0.011096 -13.360618 37.886424 24.478271 -1.051462 -18.599727 -3.572577 -0.018300 -0.074300 0.139400 -6.472916 1.869160 -1.044804 -0.299027 -0.004385 -0.049884 -5.273156 -32.308096 0.225139 0.018018 -1.017502 -0.031698 0.000000 0.003578 0.000518 -9.046260 19.518481 0.796270 -0.000000 0.000000 -0.000000 -1.807231 0.000005 0.000470 0.240133 -0.002408 0.010506 -22.785629 -0.198445 -0.511037 21.797584 -1.566731 -0.258611 -0.266177 0.015954 0.008371 8.859531 1.988506 -1.763991 3.198638 -0.915815 0.045266 
0.000000 0.088581 0.802864 0.612255 0.031316 2.928422 2.784706 -3.941619 3.231561 0.000000 0.000000 -0.000000 0.000000 -0.000000 0.000000 0.000000 0.005500 0.192500 -7.070533 0.198607 -0.007265 0.018300 -0.074300 0.139400 -5.946877 -1.479352 -12.618185 0.279318 0.189649 0.011096 -13.606832 39.016974 24.683327 -1.311792 -18.563995 -3.443797 -0.018300 -0.074300 0.139400 -6.472917 1.869160 -1.044806 -0.299027 -0.004385 -0.049884 -5.273158 -32.308096 0.225136 0.018019 -1.017498 -0.031700 0.000000 0.003578 0.000518 -9.046260 19.518481 0.796270 -0.000000 0.000000 -0.000000 -1.807231 0.000005 0.000470 0.240133 -0.002408 0.010506 -24.282011 -0.128456 -0.481342 21.799338 -1.566809 -0.258623 -0.266177 0.015954 0.008371 10.405164 1.910482 -1.749355 3.198638 -0.915815 0.045266 
0.000000 0.088581 0.802864 0.612255 0.031316 2.928422 2.919602 -4.120079 3.878781 -0.000000 -0.000000 -0.000001 -0.000000 0.000000 -0.000001 0.000000 0.005500 0.192500 -7.070535 0.198606 -0.007263 0.018300 -0.074300 0.139400 -5.946876 -1.479352 -12.618185 0.279318 0.189649 0.011096 -13.732783 39.949544 24.707951 -1.550278 -18.529521 -3.294480 -0.018300 -0.074300 0.139400 -6.472917 1.869160 -1.044803 -0.299027 -0.004385 -0.049884 -5.273159 -32.308099 0.225136 0.018020 -1.017499 -0.031699 0.000000 0.003578 0.000518 -9.046260 19.518481 0.796270 -0.000000 0.000000 -0.000000 -1.807231 0.000005 0.000470 0.240133 -0.002408 0.010506 -25.390962 -0.077223 -0.458125 21.800239 -1.566849 -0.258629 -0.266177 0.015954 0.008371 11.568410 1.851820 -1.736710 3.198639 -0.915815 0.045266 
0.000000 0.088581 0.802864 0.612255 0.031316 2.928422 3.064073 -4.222631 4.315428 0.000000 0.000000 -0.000000 -0.000000 0.000000 -0.000000 0.000000 0.005500 0.192500 -7.070534 0.198605 -0.007264 0.018300 -0.074300 0.139400 -5.946878 -1.479352 -12.618189 0.279318 0.189649 0.011096 -13.701384 40.623445 24.502487 -1.767822 -18.496374 -3.126150 -0.018300 -0.074300 0.139400 -6.472918 1.869160 -1.044804 -0.299027 -0.004385 -0.049884 -5.273158 -32.308103 0.225136 0.018019 -1.017501 -0.031699 0.000000 0.003578 0.000518 -9.046260 19.518481 0.796270 -0.000000 0.000000 -0.000000 -1.807231 0.000005 0.000470 0.240133 -0.002408 0.010506 -26.080259 -0.045678 -0.443176 21.800572 -1.566863 -0.258631 -0.266177 0.015954 0.008371 12.301524 1.814864 -1.727993 3.198637 -0.915815 0.045266 
0.000000 0.088581 0.802864 0.612255 0.031316 2.928422 3.215492 -4.252794 4.479484 -0.000001 0.000000 -0.000000 -0.000000 0.000000 0.000000 0.000000 0.005500 0.192500 -7.070535 0.198606 -0.007264 0.018300 -0.074300 0.139400 -5.946877 -1.479352 -12.618189 0.279318 0.189649 0.011096 -13.478828 40.976446 24.019931 -1.965312 -18.464585 -2.940318 -0.018300 -0.074300 0.139400 -6.472918 1.869161 -1.044804 -0.299027 -0.004385 -0.049884 -5.273157 -32.308099 0.225135 0.018019 -1.017506 -0.031699 0.000000 0.003578 0.000518 -9.046260 19.518481 0.796270 -0.000000 0.000000 -0.000000 -1.807231 0.000005 0.000470 0.240133 -0.002408 0.010506 -26.317241 -0.034895 -0.437943 21.800622 -1.566865 -0.258631 -0.266177 0.015954 0.008371 12.556612 1.801998 -1.724809 3.198638 -0.915815 0.045266 
0.000000 0.088581 0.802864 0.612255 0.031316 2.928422 3.371825 -4.167635 4.364712 -0.000001 0.000001 -0.000001 -0.000000 0.000000 -0.000000 0.000000 0.005500 0.192500 -7.070534 0.198606 -0.007263 0.018300 -0.074300 0.139400 -5.946876 -1.479351 -12.618189 0.279318 0.189649 0.011096 -13.084995 41.060662 23.263768 -2.143625 -18.434151 -2.738506 -0.018300 -0.074300 0.139400 -6.472916 1.869161 -1.044801 -0.299027 -0.004385 -0.049884 -5.273156 -32.308103 0.225135 0.018019 -1.017500 -0.031699 0.000000 0.003578 0.000518 -9.046260 19.518481 0.796270 -0.000000 0.000000 -0.000000 -1.807231 0.000005 0.000470 0.240133 -0.002408 0.010506 -26.080258 -0.045678 -0.443177 21.755001 -1.564849 -0.258323 -0.266177 0.015954 0.008371 12.301524 1.814865 -1.727993 3.198637 -0.915815 0.045266 
